<svg width="165" height="33" viewBox="0 0 165 33" fill="none" xmlns="http://www.w3.org/2000/svg">
<path fill-rule="evenodd" clip-rule="evenodd" d="M12.8003 28.8397C14.0818 28.8397 15.2661 28.6255 16.3886 28.2224C16.3982 28.2425 18.683 31.5057 18.7159 31.5284C16.6476 32.5502 14.4862 33 12.1232 33C5.09874 33 0 28.7452 0 21.953C0 15.1116 5.35916 10.8568 12.1232 10.8568C14.5314 10.8568 16.4297 11.3368 18.3417 12.2767C18.1307 12.5993 16.1624 15.671 16.1556 15.6836C15.0216 15.2688 13.8111 15.0592 12.5906 15.0662C8.42799 15.0662 5.2029 17.5054 5.2029 21.953C5.2029 26.1611 8.32382 28.8397 12.8003 28.8397ZM30.517 10.8568C37.4373 10.8568 42.4319 15.3535 42.4319 21.953C42.4319 28.5046 37.4373 33 30.517 33C23.6502 33 18.6556 28.5058 18.6556 21.953C18.6556 15.3535 23.6502 10.8568 30.517 10.8568ZM30.517 14.9226C26.6683 14.9226 23.8572 17.6491 23.8572 21.953C23.8572 26.2103 26.6669 28.9355 30.5184 28.9355C34.4727 28.9355 37.2304 26.2103 37.2304 21.953C37.2304 17.6491 34.4727 14.9226 30.517 14.9226ZM45.7104 32.5225V11.3343H50.8599V32.5225H45.7104ZM45.0334 4.8293C45.0334 3.20399 46.5438 1.91383 48.2598 1.91383C49.9772 1.91383 51.4849 3.20399 51.4849 4.83056C51.4849 6.505 49.9772 7.8443 48.2598 7.8443C46.5438 7.8443 45.0334 6.505 45.0334 4.83056V4.8293ZM55.3542 12.6749C58.5793 11.5271 62.5363 10.8568 65.9162 10.8568C71.7962 10.8568 75.5422 12.913 75.5422 18.8913V32.5225H70.4434V19.3222C70.4434 16.2619 68.3628 15.1607 65.4996 15.1607C63.678 15.1607 61.8592 15.4001 60.505 15.7831V32.5225H55.3542V12.6749ZM79.8555 0H85.005V11.9101C86.0974 11.3834 88.2301 10.8568 90.2586 10.8568C96.9198 10.8568 101.913 14.7777 101.913 21.5699C101.913 28.4088 96.9719 33 88.4398 33C85.5132 32.9922 82.6098 32.5234 79.8555 31.6141V0ZM85.005 28.5058C85.9932 28.7918 87.2939 28.9342 88.5947 28.9342C93.3288 28.9342 96.7115 26.5441 96.7115 21.6644C96.7115 17.552 93.5385 15.1128 89.6363 15.1128C87.6078 15.1128 86.0453 15.5916 85.0036 16.1182L85.005 28.5058ZM116.793 18.3168C116.793 16.0212 114.919 14.9704 112.37 14.9704C109.716 14.9704 107.635 15.6873 105.711 16.6915V12.5778C107.74 11.5271 110.34 10.8568 113.203 10.8568C118.248 10.8568 121.838 12.7694 121.838 18.0774V32.0916C119.653 32.617 116.534 32.9534 113.932 32.9534C107.948 32.9534 103.577 31.2789 103.577 26.4963C103.577 22.1924 107.582 20.0883 114.242 20.0883H116.791L116.793 18.3168ZM116.793 23.2431H114.608C111.017 23.2431 108.676 24.2007 108.676 26.3526C108.676 28.5525 110.862 29.413 113.983 29.413C114.764 29.413 115.856 29.3172 116.793 29.1736V23.2431ZM125.584 26.7835C127.718 28.2652 130.266 29.1736 132.607 29.1736C134.897 29.1736 136.406 28.4567 136.406 26.7835C136.406 25.0599 135.053 24.4388 132.089 23.7219C127.301 22.7177 125.271 20.9488 125.271 17.266C125.271 12.9609 128.81 10.8568 133.492 10.8568C136.094 10.8568 138.174 11.3834 140.099 12.4821V16.8351C138.07 15.4971 136.094 14.6832 133.649 14.6832C131.412 14.6832 130.215 15.6873 130.215 17.0745C130.215 18.4604 131.202 19.1786 133.857 19.8464C139.113 20.8997 141.401 22.719 141.401 26.5441C141.401 30.9917 137.707 33 132.712 33C130.007 33 127.301 32.3322 125.585 31.2789L125.584 26.7835ZM148.451 23.005V23.1008C148.764 26.878 152.3 28.9342 155.89 28.9342C159.064 28.9342 161.354 28.2652 163.642 26.878V31.0408C161.561 32.3789 158.491 33 155.528 33C148.347 33 143.457 28.7918 143.457 22.0966C143.457 15.3535 148.242 10.858 154.59 10.858C161.301 10.858 164.475 14.8268 164.475 20.6124V23.0063L148.451 23.005ZM159.636 19.9434C159.533 16.6424 157.765 14.8268 154.434 14.8268C151.468 14.8268 149.283 16.7406 148.608 19.9446L159.636 19.9434Z" fill="black"/>
</svg>
