<svg width="227" height="41" viewBox="0 0 227 41" fill="none" xmlns="http://www.w3.org/2000/svg">
<path d="M14.7617 17.2277L23.509 9.26799L32.2598 17.2342L37.3466 12.6002L23.509 0L9.6713 12.597L14.7617 17.2277Z" fill="black"/>
<path d="M0.986206 20.501L6.07476 15.8687L11.1633 20.501L6.07476 25.1333L0.986206 20.501Z" fill="black"/>
<path d="M14.7615 23.7718L23.5088 31.7348L32.2596 23.7686L37.35 28.3961L37.3465 28.3993L23.5088 40.9995L9.67112 28.4058L9.664 28.3993L14.7615 23.7718Z" fill="black"/>
<path d="M35.8459 20.502L40.9345 15.8696L46.0231 20.502L40.9345 25.1343L35.8459 20.502Z" fill="black"/>
<path d="M28.6704 20.4989L23.5089 15.7969L19.692 19.2716L19.2509 19.6699L18.3473 20.4924L18.3402 20.4989L18.3473 20.5086L23.5089 25.2041L28.6704 20.5021L28.674 20.4989H28.6704Z" fill="black"/>
<path d="M53.9624 9.93457H65.0326C67.7787 9.93457 69.8562 10.5822 71.2648 11.8775C71.7956 12.356 72.214 12.9277 72.4946 13.5578C72.7753 14.188 72.9124 14.8635 72.8976 15.5433V15.6048C72.9072 16.1617 72.822 16.7167 72.6451 17.2499C72.4875 17.7089 72.2587 18.1451 71.9656 18.5452C71.6924 18.9225 71.3619 19.2627 70.9838 19.5555C70.6144 19.8449 70.2098 20.0949 69.7779 20.3003C71.0235 20.6953 72.1436 21.3625 73.0399 22.2433C73.832 23.0637 74.228 24.1971 74.228 25.6435V25.705C74.2505 26.6084 74.0346 27.5035 73.5984 28.3151C73.1757 29.0629 72.5561 29.7038 71.7949 30.1804C70.9343 30.7056 69.9761 31.0841 68.9669 31.2976C67.7678 31.5564 66.5387 31.6815 65.3065 31.67H53.9624V9.93457ZM63.9227 18.7233C64.8805 18.7654 65.8336 18.5778 66.6867 18.1793C67.0194 18.0024 67.291 17.7442 67.4708 17.434C67.6506 17.1238 67.7314 16.774 67.704 16.4241V16.3626C67.7217 16.0402 67.6497 15.719 67.4949 15.4287C67.3401 15.1383 67.1074 14.8882 66.8183 14.7013C66.2278 14.3192 65.3752 14.1282 64.2606 14.1282H59.0813V18.7233H63.9227ZM65.3207 27.4829C66.2749 27.5315 67.2247 27.3328 68.0598 26.9097C68.3851 26.7194 68.6484 26.4532 68.8223 26.1388C68.9963 25.8245 69.0744 25.4734 69.0487 25.1222V25.0606C69.0615 24.7268 68.9842 24.3952 68.8236 24.0948C68.663 23.7945 68.4239 23.5346 68.1274 23.3379C67.5155 22.9061 66.5266 22.6902 65.1606 22.6902H59.0813V27.4829H65.3207Z" fill="black"/>
<path d="M80.8232 9.93457H86.0772V31.6765H80.8232V9.93457Z" fill="black"/>
<path d="M94.0278 9.93457H98.8727L110.071 23.3152V9.93457H115.257V31.6765H110.786L99.2213 17.8554V31.6765H94.0278V9.93457Z" fill="black"/>
<path d="M131.165 9.7793H136.003L146.237 31.6766H140.752L138.568 26.7998H128.469L126.285 31.6766H120.928L131.165 9.7793ZM136.693 22.577L133.513 15.524L130.347 22.577H136.693Z" fill="black"/>
<path d="M151.918 9.93457H156.763L167.954 23.3152V9.93457H173.141V31.6765H168.669L157.105 17.8554V31.6765H151.918V9.93457Z" fill="black"/>
<path d="M192.051 32.059C190.377 32.072 188.716 31.7768 187.171 31.1911C185.715 30.644 184.395 29.8373 183.287 28.8184C182.179 27.7995 181.307 26.5891 180.721 25.2586C180.103 23.8668 179.79 22.3783 179.8 20.8771V20.8156C179.772 17.8566 181.023 15.0061 183.282 12.8786C184.394 11.8393 185.725 11.0154 187.195 10.4563C188.795 9.85323 190.512 9.55245 192.243 9.57227C193.267 9.56531 194.289 9.64882 195.295 9.82162C196.156 9.96982 196.998 10.1988 197.807 10.5049C198.541 10.7862 199.239 11.1402 199.888 11.5606C200.521 11.9706 201.116 12.4276 201.666 12.9271L198.326 16.4374C197.472 15.7206 196.515 15.1137 195.48 14.6337C194.464 14.1913 193.348 13.9696 192.222 13.9861C191.284 13.977 190.355 14.1495 189.497 14.4923C188.638 14.8352 187.869 15.3404 187.242 15.9744C186.619 16.6068 186.132 17.3393 185.805 18.1343C185.462 18.9745 185.289 19.8643 185.296 20.7606V20.8221C185.292 21.717 185.465 22.6053 185.805 23.4451C186.128 24.243 186.61 24.9797 187.227 25.618C187.85 26.2599 188.617 26.7725 189.476 27.1211C190.335 27.4698 191.267 27.6463 192.208 27.6387C193.405 27.673 194.594 27.4384 195.669 26.9554C196.692 26.4478 197.638 25.8208 198.483 25.0902L201.826 28.1665C201.236 28.7499 200.597 29.2912 199.916 29.7857C199.247 30.2674 198.52 30.6791 197.75 31.013C196.929 31.3648 196.064 31.6247 195.174 31.787C194.146 31.9746 193.1 32.0657 192.051 32.059Z" fill="black"/>
<path d="M208.027 9.93457H226.001V14.1897H213.195V18.6002H224.472V22.8554H213.213V27.4213H226.179V31.6765H208.037L208.027 9.93457Z" fill="black"/>
</svg>
