<svg width="342" height="24" viewBox="0 0 342 24" fill="none" xmlns="http://www.w3.org/2000/svg">
<path fill-rule="evenodd" clip-rule="evenodd" d="M87.1414 18.25C89.161 18.25 91.0123 17.45 92.3027 16.25C92.5832 15.95 93.2003 15.4 93.1442 15.5L97.4639 19.65C94.9955 22.3 91.2928 24 87.0853 24C79.6239 24 73.6211 18.65 73.6211 12C73.6211 5.35 79.6239 0 87.0853 0C91.0684 0 94.6589 1.55 97.1273 4L92.8076 8.15L91.7978 7.25C90.5635 6.25 88.9366 5.65 87.1414 5.65C83.2704 5.65 80.0727 8.45 80.0727 11.95C80.0727 15.4 83.2143 18.25 87.1414 18.25ZM253.312 23.6C255.332 23.6 256.734 22.35 256.734 20.55C256.734 18.8 255.332 17.6 253.312 17.55C251.349 17.55 249.946 18.8 249.946 20.55C249.946 22.35 251.349 23.6 253.312 23.6ZM143.411 16.35C142.12 17.55 140.269 18.35 138.249 18.35C134.322 18.35 131.181 15.5 131.181 12.05C131.181 8.55 134.378 5.75 138.249 5.75C140.044 5.75 141.671 6.35 142.906 7.35L143.915 8.25L148.291 4C145.823 1.55 142.232 0 138.249 0C130.788 0 124.785 5.35 124.785 12C124.785 18.65 130.788 24 138.249 24C142.457 24 146.16 22.3 148.628 19.65L144.308 15.5C144.308 15.5 143.691 16.05 143.411 16.35ZM272.218 18.25C274.238 18.25 276.089 17.45 277.379 16.25C277.66 15.95 278.277 15.4 278.221 15.5L282.541 19.65C280.072 22.3 276.37 24 272.162 24C264.701 24 258.698 18.65 258.698 12C258.698 5.35 264.701 0 272.162 0C276.145 0 279.736 1.55 282.204 4L277.884 8.15L276.874 7.25C275.64 6.25 274.013 5.65 272.218 5.65C268.347 5.65 265.149 8.45 265.149 11.95C265.149 15.4 268.291 18.25 272.218 18.25ZM18.3617 11.5C20.6619 10.6 22.3449 9.05 22.3449 6.35V6.3C22.3449 4.7 21.7278 3.5 20.6619 2.6C19.1471 1.2 16.9031 0.5 13.6493 0.5H0.185059V23.5H13.7054C19.8765 23.5 23.4669 21.1 23.4669 17.15V17.1C23.4669 13.95 21.5034 12.4 18.3617 11.5ZM7.36597 5.6H12.0223C14.1542 5.6 15.2762 6.3 15.2762 7.55V7.6C15.2762 8.95 14.042 9.6 11.854 9.6H7.36597V5.6ZM16.3421 16.3C16.3421 17.65 15.1079 18.4 12.92 18.4H7.36597V14.15H12.8078C15.2201 14.15 16.286 14.95 16.286 16.2V16.3H16.3421ZM25.7109 0.5H32.8919V17.95H44.5047V23.5H25.7109V0.5ZM168.375 9.1H159.175V0.5H151.994V23.55L159.175 23.5V14.75H168.375V23.5H175.556V0.5H168.375V9.1ZM189.638 0.5H196.482L207.422 23.5H199.792L197.941 19.4H188.067L186.215 23.5H178.754L189.638 0.5ZM192.948 8L190.086 14.5H195.809L192.948 8ZM217.8 0.5H210.619V23.55H217.8V0.5ZM238.558 12.7V0.55H245.739V23.55H239.399L228.347 10.9V23.55H221.166V0.5L227.898 0.55L238.558 12.7ZM124.897 0.5H116.426L107.506 9.85V0.5H100.325V23.55H107.506V17.6L110.143 15L117.38 23.55H125.907L114.799 10.4L124.897 0.5ZM45.0657 12C45.0657 5.35 51.0685 0 58.5299 0C65.9353 0 71.9942 5.35 71.9942 12C71.9942 18.65 65.9914 24 58.5299 24C51.0685 24 45.0657 18.65 45.0657 12ZM51.4612 12C51.4612 15.45 54.6029 18.3 58.5299 18.3C62.457 18.3 65.5987 15.5 65.5987 12C65.5987 8.55 62.457 5.7 58.5299 5.7C54.659 5.7 51.4612 8.5 51.4612 12ZM296.622 0C289.161 0 283.158 5.35 283.158 12C283.158 18.65 289.161 24 296.622 24C304.083 24 310.086 18.65 310.086 12C310.086 5.35 304.083 0 296.622 0ZM296.622 18.3C292.695 18.3 289.553 15.45 289.553 12C289.553 8.5 292.751 5.7 296.622 5.7C300.549 5.7 303.691 8.55 303.691 12C303.747 15.5 300.549 18.3 296.622 18.3ZM334.546 9.85L329.385 21.15H324.392L319.231 9.85V23.45H312.499V0.5H320.689L326.916 13.2L333.144 0.5H341.278V23.45H334.546V9.85Z" fill="black"/>
</svg>
