<svg width="197" height="29" viewBox="0 0 197 29" fill="none" xmlns="http://www.w3.org/2000/svg">
<g clip-path="url(#clip0_47_137)">
<path d="M17.5929 0.532227H35.9538C35.9427 0.74813 35.8587 0.956064 35.7129 1.12902C35.0914 2.0767 34.532 3.06307 33.9213 4.01075C33.0573 5.37149 32.2493 6.7571 31.3713 8.11231C30.8151 9.08762 30.1873 10.0325 29.5937 10.9913C26.0259 10.9913 22.4582 10.9913 18.8904 10.9913C18.704 10.9913 18.519 10.9996 18.3326 11.0092C18.1772 11.3739 17.9192 11.6931 17.711 12.0357C17.4391 12.428 17.2184 12.8466 16.9496 13.2389C16.6652 13.7666 16.2721 14.2391 15.9862 14.7654C15.3957 15.6565 14.8441 16.5613 14.266 17.462C13.6631 18.383 13.0737 19.3169 12.4977 20.2637C12.2539 20.5992 12.0294 20.9455 11.8248 21.3011C10.6175 23.1689 9.44892 25.0532 8.23999 26.9195C8.13745 27.1202 8.00237 27.3063 7.83908 27.4721C5.77239 27.4597 3.70571 27.4721 1.63902 27.4721C1.38447 27.4764 1.13144 27.508 0.885376 27.5661C0.885376 27.0577 1.26764 26.6502 1.52558 26.2233C1.83636 25.65 2.25125 25.1181 2.56359 24.5434C5.04051 20.6035 7.49101 16.6497 9.96015 12.7071C10.5196 11.8505 10.9997 10.9761 11.5622 10.1362C12.2646 9.03098 12.9188 7.90095 13.6507 6.80821C13.8838 6.35095 14.1976 5.93236 14.454 5.48615C15.3646 4.04529 16.2581 2.59613 17.1656 1.15527C17.2733 0.930244 17.4172 0.720361 17.5929 0.532227Z" fill="black"/>
<path d="M38.8688 6.33304C40.0917 4.43353 41.2727 2.51329 42.5127 0.62207H49.1447C49.2413 0.626415 49.3372 0.639844 49.4306 0.662133C49.21 0.959147 49.0251 1.27412 48.8308 1.58357C47.2313 4.13559 45.6365 6.68899 44.0464 9.24378C43.3782 10.284 42.7566 11.3477 42.0791 12.3825L42.0123 12.4032L41.9999 12.533C38.8817 17.5063 35.7739 22.4833 32.6765 27.4639C26.5883 27.4694 20.4996 27.4694 14.4104 27.4639C14.7569 26.8201 15.1671 26.2054 15.5525 25.5796C17.2866 22.7448 19.0659 19.9349 20.7752 17.1002C24.5159 17.0946 28.2567 17.0946 31.9974 17.1002C34.3081 13.5222 36.569 9.91655 38.8626 6.33304H38.8688Z" fill="black"/>
<path d="M107.314 0.548828V27.7913H112.623V8.63453L122.309 21.2514L131.917 8.33475V27.7913H137.382V0.548828H131.503L122.348 13.1243L113.09 0.548828H107.314Z" fill="black"/>
<path d="M82.4773 7.57422H85.9472V28.0199H82.4773V7.57422Z" fill="black"/>
<path d="M82.1793 0H86.2459V3.43017H82.1793V0Z" fill="black"/>
<path d="M92.578 1.71582H96.2032V7.5746H103.351V10.4301H96.2032V22.5759C96.197 23.0439 96.3191 23.5062 96.5591 23.9228C97.1729 24.9589 98.8402 26.1884 103.351 24.7517V27.3986C103.351 27.3986 99.2333 29.4708 95.504 27.5837C95.504 27.5837 93.6517 26.8847 92.8732 24.5252C92.671 23.8931 92.5716 23.2385 92.578 22.5814V10.3845L89.5215 10.4301V7.5746H92.6029L92.578 1.71582Z" fill="black"/>
<path d="M142.975 0.548828V27.975H166.024V23.5543H148.596V16.2782H163.953V11.9266H148.569V4.99714H165.844V0.548828H142.975Z" fill="black"/>
<path d="M168.187 0.548828H174.753L182.289 10.1776L189.766 0.548828H196.332L185.61 13.9242L197 27.9515H190.085L182.315 17.7066L174.17 27.975H167.605L178.832 14.0457L168.187 0.548828Z" fill="black"/>
<path d="M71.8578 13.7454C71.8578 13.7454 76.9344 12.0421 76.6236 7.13788C76.6236 7.13788 76.5817 2.42157 70.6085 0.965503C69.6153 0.728929 68.591 0.611842 67.5628 0.617375H53.2374L53.2763 27.8598H68.6987C68.6987 27.8598 77.7238 27.6871 78.3593 20.5381C78.3593 20.5381 79.0057 15.5413 71.8578 13.7454ZM56.9404 3.43003H66.0835C73.2563 3.40793 73.0496 7.89768 73.0496 7.89768C73.1569 13.0201 66.5745 12.9165 66.5745 12.9165H56.9404V3.43003ZM68.1284 24.9809H56.9404V15.4957H67.6374C74.8102 15.4722 74.6035 19.962 74.6035 19.962C74.7108 25.0845 68.1284 24.9809 68.1284 24.9809Z" fill="black"/>
</g>
<defs>
<clipPath id="clip0_47_137">
<rect width="196.115" height="28.3766" fill="white" transform="translate(0.885376)"/>
</clipPath>
</defs>
</svg>
